<svg xmlns="http://www.w3.org/2000/svg" width="1200" height="720" viewBox="0 0 1200 720">
  <rect width="1200" height="720" fill="#F8FAFC"/>
  <text x="48" y="54" font-family="Arial, Helvetica, sans-serif" font-size="30" font-weight="700" fill="#0F172A">ParkLink - Diagrama de contenedores</text>
  <text x="48" y="84" font-family="Arial, Helvetica, sans-serif" font-size="15" fill="#475569">Aplicación móvil, API, servicios de dominio y almacenamiento</text>
  <defs>
    <marker id="arrow" viewBox="0 0 10 10" refX="8" refY="5" markerWidth="7" markerHeight="7" orient="auto-start-reverse">
      <path d="M0 0 L10 5 L0 10 z" fill="#334155"/>
    </marker>
  </defs>
  <g font-family="Arial, Helvetica, sans-serif">
    <rect x="54" y="170" width="210" height="90" rx="12" fill="#DBEAFE" stroke="#2563EB" stroke-width="2"/>
    <text x="159" y="206" text-anchor="middle" font-size="17" font-weight="700" fill="#1E3A8A">Mobile Application</text>
    <text x="159" y="231" text-anchor="middle" font-size="13" fill="#1E40AF">Flutter/KMM</text>
    <rect x="54" y="320" width="210" height="90" rx="12" fill="#E0F2FE" stroke="#0284C7" stroke-width="2"/>
    <text x="159" y="356" text-anchor="middle" font-size="17" font-weight="700" fill="#075985">Landing Page</text>
    <text x="159" y="381" text-anchor="middle" font-size="13" fill="#0369A1">HTML/CSS/JS</text>

    <rect x="338" y="244" width="210" height="100" rx="12" fill="#ECFDF5" stroke="#059669" stroke-width="2"/>
    <text x="443" y="286" text-anchor="middle" font-size="18" font-weight="700" fill="#065F46">API Gateway</text>
    <text x="443" y="313" text-anchor="middle" font-size="13" fill="#047857">HTTPS, JWT, rate limit</text>

    <rect x="626" y="132" width="284" height="280" rx="16" fill="#FEF3C7" stroke="#D97706" stroke-width="2"/>
    <text x="768" y="168" text-anchor="middle" font-size="19" font-weight="700" fill="#92400E">RESTful Web Services</text>
    <text x="768" y="194" text-anchor="middle" font-size="13" fill="#92400E">Spring Boot / .NET Core</text>
    <rect x="654" y="218" width="228" height="36" rx="8" fill="#FFFFFF" stroke="#F59E0B"/>
    <text x="768" y="241" text-anchor="middle" font-size="13" fill="#78350F">Parking Space Management</text>
    <rect x="654" y="264" width="228" height="36" rx="8" fill="#FFFFFF" stroke="#F59E0B"/>
    <text x="768" y="287" text-anchor="middle" font-size="13" fill="#78350F">Reservation Management</text>
    <rect x="654" y="310" width="228" height="36" rx="8" fill="#FFFFFF" stroke="#F59E0B"/>
    <text x="768" y="333" text-anchor="middle" font-size="13" fill="#78350F">Payment + Pricing Recommendation</text>
    <rect x="654" y="356" width="228" height="36" rx="8" fill="#FFFFFF" stroke="#F59E0B"/>
    <text x="768" y="379" text-anchor="middle" font-size="13" fill="#78350F">IAM, Notifications, Media</text>

    <rect x="976" y="132" width="170" height="78" rx="12" fill="#F1F5F9" stroke="#64748B" stroke-width="2"/>
    <text x="1061" y="164" text-anchor="middle" font-size="16" font-weight="700" fill="#334155">PostgreSQL</text>
    <text x="1061" y="188" text-anchor="middle" font-size="12" fill="#475569">Datos transaccionales</text>
    <rect x="976" y="242" width="170" height="78" rx="12" fill="#F1F5F9" stroke="#64748B" stroke-width="2"/>
    <text x="1061" y="274" text-anchor="middle" font-size="16" font-weight="700" fill="#334155">Redis</text>
    <text x="1061" y="298" text-anchor="middle" font-size="12" fill="#475569">Cache disponibilidad</text>
    <rect x="976" y="352" width="170" height="78" rx="12" fill="#F1F5F9" stroke="#64748B" stroke-width="2"/>
    <text x="1061" y="384" text-anchor="middle" font-size="16" font-weight="700" fill="#334155">Object Storage</text>
    <text x="1061" y="408" text-anchor="middle" font-size="12" fill="#475569">S3 compatible</text>

    <rect x="626" y="492" width="520" height="74" rx="12" fill="#FCE7F3" stroke="#DB2777" stroke-width="2"/>
    <text x="886" y="525" text-anchor="middle" font-size="16" font-weight="700" fill="#9D174D">Servicios externos</text>
    <text x="886" y="549" text-anchor="middle" font-size="13" fill="#9D174D">Payment Gateway, Email, Push Notifications, Maps API</text>

    <path d="M264 215 L338 282" stroke="#334155" stroke-width="3" marker-end="url(#arrow)"/>
    <path d="M264 365 L338 318" stroke="#334155" stroke-width="3" marker-end="url(#arrow)"/>
    <path d="M548 294 L626 272" stroke="#334155" stroke-width="3" marker-end="url(#arrow)"/>
    <path d="M910 171 L976 171" stroke="#334155" stroke-width="3" marker-end="url(#arrow)"/>
    <path d="M910 282 L976 282" stroke="#334155" stroke-width="3" marker-end="url(#arrow)"/>
    <path d="M910 392 L976 392" stroke="#334155" stroke-width="3" marker-end="url(#arrow)"/>
    <path d="M790 412 L844 492" stroke="#334155" stroke-width="3" marker-end="url(#arrow)"/>
  </g>
</svg>
